<svg width="30" height="30" viewBox="0 0 30 30" fill="none" xmlns="http://www.w3.org/2000/svg">
<path d="M29.4021 16.3296L27.7627 14.6902L14.701 27.7519L16.3404 29.3913L29.4021 16.3296Z" fill="#000001"/>
<path d="M14.701 27.752L11.4329 24.4839L9.79345 26.1233L13.0616 29.3914L14.701 27.752Z" fill="#000001"/>
<path d="M17.9586 17.9583L16.3299 16.3296L14.7012 17.9583L13.0725 16.3296L11.4331 17.969L13.0618 19.5977L9.80438 22.8551L11.4331 24.4838L17.9586 17.9583Z" fill="#000001"/>
<path d="M11.4331 17.969L9.7937 16.3296L8.16501 17.9583L9.80442 19.5977L11.4331 17.969Z" fill="#000001"/>
<path d="M8.16483 17.9583L6.53613 16.3296L4.90744 17.9583L6.53613 19.587L8.16483 17.9583Z" fill="#000001"/>
<path d="M14.701 11.4222L16.3404 13.0616L17.9691 11.4329L11.4329 4.89673L9.80417 6.52542L13.0723 9.79352L11.4329 11.4329L13.0616 13.0616L14.701 11.4222Z" fill="#000001"/>
<path d="M11.4331 11.4329L9.7937 9.79346L8.16501 11.4222L9.80442 13.0616L11.4331 11.4329Z" fill="#000001"/>
<path d="M29.3913 13.0617L16.3296 0L14.7009 1.62869L27.7626 14.6904L29.3913 13.0617Z" fill="#000001"/>
<path d="M4.9075 17.9583L1.6394 14.6902L-3.22078e-06 16.3296L3.2681 19.5977L4.9075 17.9583Z" fill="#000001"/>
<path d="M8.16482 11.4221L6.53613 9.79346L4.89673 11.4329L6.52542 13.0616L8.16482 11.4221Z" fill="#000001"/>
<path d="M4.89676 11.4329L3.26807 9.8042L0.0106812 13.0616L1.63937 14.6903L4.89676 11.4329Z" fill="#000001"/>
<path d="M14.7012 1.62869L13.0725 0L9.80441 3.2681L11.4331 4.89679L14.7012 1.62869Z" fill="#000001"/>
</svg>
