<svg width="30" height="30" viewBox="0 0 30 30" fill="none" xmlns="http://www.w3.org/2000/svg">
<path d="M19.5876 26.1231L17.9589 24.4944L14.6908 27.7625L16.3195 29.3912L19.5876 26.1231Z" fill="#000001"/>
<path d="M29.381 16.3296L27.7523 14.7009L24.4949 17.9583L26.1236 19.587L29.381 16.3296Z" fill="#000001"/>
<path d="M24.495 17.9583L22.8663 16.3296L21.2269 17.969L22.8556 19.5977L24.495 17.9583Z" fill="#000001"/>
<path d="M29.3915 13.0616L26.1234 9.79346L24.484 11.4329L27.7521 14.701L29.3915 13.0616Z" fill="#000001"/>
<path d="M14.6907 27.7626L1.62903 14.7009L0.000335206 16.3296L13.062 29.3913L14.6907 27.7626Z" fill="#000001"/>
<path d="M21.2268 17.969L19.5874 16.3296L17.9587 17.9583L19.5981 19.5977L21.2268 17.969Z" fill="#000001"/>
<path d="M14.7014 17.9583L13.062 16.3189L11.4226 17.9583L17.9588 24.4945L19.5982 22.8551L16.3301 19.587L17.9588 17.9583L16.3301 16.3296L14.7014 17.9583Z" fill="#000001"/>
<path d="M24.4843 11.4329L22.8556 9.8042L21.2269 11.4329L22.8556 13.0616L24.4843 11.4329Z" fill="#000001"/>
<path d="M21.2268 11.4329L19.5874 9.79346L17.9587 11.4222L19.5981 13.0616L21.2268 11.4329Z" fill="#000001"/>
<path d="M11.4334 11.433L13.0621 13.0616L14.6908 11.433L16.3195 13.0616L17.9589 11.4222L16.3302 9.79355L19.5876 6.53616L17.9589 4.90747L11.4334 11.433Z" fill="#000001"/>
<path d="M19.5981 3.2681L16.33 0L14.6905 1.63941L17.9586 4.90751L19.5981 3.2681Z" fill="#000001"/>
<path d="M14.6905 1.63943L13.0618 0.0107422L8.18124e-05 13.0724L1.62877 14.7011L14.6905 1.63943Z" fill="#000001"/>
</svg>
